<?xml version="1.0" encoding="UTF-8" standalone="no"?>
<!-- Created with Inkscape (http://www.inkscape.org/) -->

<svg
   xmlns:osb="http://www.openswatchbook.org/uri/2009/osb"
   xmlns:dc="http://purl.org/dc/elements/1.1/"
   xmlns:cc="http://creativecommons.org/ns#"
   xmlns:rdf="http://www.w3.org/1999/02/22-rdf-syntax-ns#"
   xmlns:svg="http://www.w3.org/2000/svg"
   xmlns="http://www.w3.org/2000/svg"
   xmlns:sodipodi="http://sodipodi.sourceforge.net/DTD/sodipodi-0.dtd"
   xmlns:inkscape="http://www.inkscape.org/namespaces/inkscape"
   width="210mm"
   height="297mm"
   viewBox="0 0 744.09448819 1052.3622047"
   id="svg2"
   version="1.1"
   inkscape:version="0.91 r13725"
   sodipodi:docname="yeah.svg">
  <defs
     id="defs4">
    <linearGradient
       id="linearGradient4374"
       osb:paint="solid">
      <stop
         style="stop-color:#000000;stop-opacity:1;"
         offset="0"
         id="stop4376" />
    </linearGradient>
  </defs>
  <sodipodi:namedview
     id="base"
     pagecolor="#ffffff"
     bordercolor="#666666"
     borderopacity="1.0"
     inkscape:pageopacity="0.0"
     inkscape:pageshadow="2"
     inkscape:zoom="1.4"
     inkscape:cx="534.98968"
     inkscape:cy="839.32574"
     inkscape:document-units="px"
     inkscape:current-layer="layer1"
     showgrid="true"
     showguides="true"
     inkscape:guide-bbox="true"
     inkscape:window-width="1920"
     inkscape:window-height="1017"
     inkscape:window-x="-8"
     inkscape:window-y="-8"
     inkscape:window-maximized="1">
    <inkscape:grid
       type="xygrid"
       id="grid4232" />
  </sodipodi:namedview>
  <metadata
     id="metadata7">
    <rdf:RDF>
      <cc:Work
         rdf:about="">
        <dc:format>image/svg+xml</dc:format>
        <dc:type
           rdf:resource="http://purl.org/dc/dcmitype/StillImage" />
        <dc:title></dc:title>
      </cc:Work>
    </rdf:RDF>
  </metadata>
  <g
     inkscape:label="Ebene 1"
     inkscape:groupmode="layer"
     id="layer1">
    <rect
       style="fill:#000000;fill-opacity:1;stroke:none;stroke-width:0.5;stroke-linecap:butt;stroke-linejoin:miter;stroke-miterlimit:4;stroke-dasharray:none;stroke-dashoffset:0;stroke-opacity:1"
       id="rect6027"
       width="693.75"
       height="285.7901"
       x="27.05357"
       y="26.558634"
       rx="41.450542"
       ry="41.450474"
       inkscape:export-xdpi="159.02286"
       inkscape:export-ydpi="159.02286" />
    <path
       style="fill:#ffff00;fill-opacity:1;stroke:#808000;stroke-width:4.07232714;stroke-miterlimit:4;stroke-dasharray:none;stroke-opacity:1"
       d="m 337.22257,230.88471 c 9.0646,0 16.36889,-7.30429 16.36889,-16.3688 l 0,-8.00155 c 0,-9.03747 -7.26227,-16.30959 -16.28931,-16.35292 9.02427,0 16.28931,-7.30429 16.28931,-16.3688 l 0,-48.72482 c 0,-9.06451 -7.26504,-16.35292 -16.28931,-16.35292 l -48.86793,0 c -16.31382,0.0163 -24.45847,0.0163 -40.64369,0 -9.0646,0 -16.36888,7.28841 -16.36888,16.35292 l 0,81.44654 0,8.00155 c 0,9.06451 7.30428,16.3688 16.36888,16.3688 l 7.9855,0 z"
       id="rect4264-8"
       inkscape:export-xdpi="159.02286"
       inkscape:export-ydpi="159.02286"
       inkscape:connector-curvature="0"
       sodipodi:nodetypes="ssscsssccscsscs" />
    <path
       style="fill:#00ff00;fill-opacity:1;stroke:#008000;stroke-width:4.07232714;stroke-miterlimit:4;stroke-dasharray:none;stroke-opacity:1"
       d="m 410.65909,108.72525 c -9.06459,0 -16.36888,7.30429 -16.36888,16.3688 l 0,8.00155 c 0,9.03747 7.26226,16.30959 16.28931,16.35292 -9.02428,0 -16.28931,7.30429 -16.28931,16.3688 l 0,48.72482 c 0,9.06451 7.26503,16.35292 16.28931,16.35292 l 48.86792,0 c 16.28931,0.007 24.43396,0.007 40.6437,0 9.06459,0 16.36888,-7.28841 16.36888,-16.35292 l 0,-81.44654 0,-8.00155 c 0,-9.06451 -7.30429,-16.3688 -16.36888,-16.3688 l -7.98551,0 z"
       id="rect4264"
       inkscape:export-xdpi="159.02286"
       inkscape:export-ydpi="159.02286"
       inkscape:connector-curvature="0"
       sodipodi:nodetypes="ssscsssccscsscs" />
    <path
       style="fill:#00ffff;fill-opacity:1;stroke:#008080;stroke-width:4.07232714;stroke-miterlimit:4;stroke-dasharray:none;stroke-opacity:1"
       d="m 573.55217,68.001984 c -9.06459,0 -16.36888,7.30429 -16.36888,16.3688 l 0,40.723266 0,8.00155 0,81.44654 c 0,9.06451 7.30429,16.35292 16.36888,16.35292 l 7.98551,0 c 9.06459,0 16.36888,-7.28841 16.36888,-16.35292 l 0,-65.09362 40.72327,0 0,65.09362 c 0,9.06451 7.30429,16.35292 16.36888,16.35292 l 7.9855,0 c 9.0646,0 16.36889,-7.28841 16.36889,-16.35292 l 0,-81.44654 0,-8.00155 c 0,-9.06451 -7.30429,-16.3688 -16.36889,-16.3688 l -65.07765,0 0,-24.354466 c 0,-9.06451 -7.30429,-16.3688 -16.36888,-16.3688 l -7.98551,0 z"
       id="path4352"
       inkscape:export-xdpi="159.02286"
       inkscape:export-ydpi="159.02286"
       inkscape:connector-curvature="0" />
    <path
       style="fill:#00ff00;fill-opacity:1;stroke:#008000;stroke-width:4.07232714;stroke-miterlimit:4;stroke-dasharray:none;stroke-opacity:1"
       d="m 475.73675,190.17887 -40.72327,0"
       id="path4350"
       inkscape:export-xdpi="159.02286"
       inkscape:export-ydpi="159.02286"
       inkscape:connector-curvature="0"
       sodipodi:nodetypes="cc" />
    <a
       id="a6120">
      <path
         inkscape:connector-curvature="0"
         inkscape:export-ydpi="159.02286"
         inkscape:export-xdpi="159.02286"
         id="path4348"
         d="m 410.57952,149.4556 65.15723,0"
         style="fill:#ffffff;fill-opacity:1;stroke:#008000;stroke-width:4.07232714;stroke-miterlimit:4;stroke-dasharray:none;stroke-opacity:1" />
    </a>
    <path
       style="fill:#ff0000;fill-opacity:1;stroke:#800000;stroke-width:4.07232714;stroke-miterlimit:4;stroke-dasharray:none;stroke-opacity:1"
       d="m 174.3295,271.60798 c 9.06459,0 16.36888,-7.30429 16.36888,-16.3688 l 0,-40.72327 0,-8.00155 0,-81.44654 c 0,-9.06451 -7.30429,-16.35292 -16.36888,-16.35292 l -7.98551,0 c -9.06459,0 -16.36888,7.28841 -16.36888,16.35292 l 0,65.09362 -40.72327,0 0,-65.09362 c 0,-9.06451 -7.30429,-16.35292 -16.368883,-16.35292 l -7.98551,0 c -9.06459,0 -16.36888,7.28841 -16.36888,16.35292 l 0,81.44654 0,8.00155 c 0,9.06451 7.30429,16.3688 16.36888,16.3688 l 65.077663,0 0,24.35447 c 0,9.06451 7.30429,16.3688 16.36888,16.3688 l 7.98551,0 z"
       id="path4360"
       inkscape:export-xdpi="159.02286"
       inkscape:export-ydpi="159.02286"
       inkscape:connector-curvature="0" />
    <path
       style="fill:#ffff00;fill-opacity:1;stroke:#808000;stroke-width:4.07232714;stroke-miterlimit:4;stroke-dasharray:none;stroke-opacity:1"
       d="m 272.14492,149.43109 40.72327,0"
       id="path4358"
       inkscape:export-xdpi="159.02286"
       inkscape:export-ydpi="159.02286"
       inkscape:connector-curvature="0"
       sodipodi:nodetypes="cc" />
    <path
       style="fill:#ffffff;fill-opacity:1;stroke:#808000;stroke-width:4.07232714;stroke-miterlimit:4;stroke-dasharray:none;stroke-opacity:1"
       d="m 337.30215,190.15436 -65.15723,0"
       id="path4356"
       inkscape:export-xdpi="159.02286"
       inkscape:export-ydpi="159.02286"
       inkscape:connector-curvature="0" />
    <text
       xml:space="preserve"
       style="font-style:normal;font-weight:normal;font-size:12.5px;line-height:125%;font-family:sans-serif;letter-spacing:0px;word-spacing:0px;fill:#000000;fill-opacity:1;stroke:none;stroke-width:1px;stroke-linecap:butt;stroke-linejoin:miter;stroke-opacity:1;"
       x="131"
       y="259.36221"
       id="text4299"
       sodipodi:linespacing="125%"><tspan
         sodipodi:role="line"
         id="tspan4301"
         x="131"
         y="259.36221" /></text>
    <g
       style="font-style:normal;font-weight:normal;font-size:471.55233765px;line-height:125%;font-family:sans-serif;letter-spacing:0px;word-spacing:0px;fill:#000000;fill-opacity:1;stroke:#000000;stroke-width:4.07232714;stroke-linecap:butt;stroke-linejoin:miter;stroke-miterlimit:4;stroke-dasharray:none;stroke-dashoffset:0;stroke-opacity:1"
       id="text4307-1">
      <path
         d="m 279.2615,285.11658 0,-3.60902 q -5.45827,4.5933 -11.66221,4.5933 -4.50381,0 -7.03908,-2.26683 -2.53526,-2.29665 -2.53526,-5.6074 0,-3.63885 3.34058,-6.35307 3.34058,-2.71422 9.7533,-2.71422 1.72995,0 3.75816,0.23861 2.02821,0.20879 4.38451,0.68601 l 0,-4.05642 q 0,-2.05803 -1.9089,-3.57919 -1.90891,-1.52116 -5.72671,-1.52116 -2.92301,0 -8.20232,1.70012 -0.95445,0.29827 -1.22289,0.29827 -0.47723,0 -0.83515,-0.35792 -0.32809,-0.35792 -0.32809,-0.8948 0,-0.50705 0.29827,-0.80532 0.41757,-0.4474 3.3704,-1.22289 4.65295,-1.25272 7.03908,-1.25272 4.74244,0 7.397,2.3563 2.65457,2.32648 2.65457,5.27931 l 0,16.5836 3.34058,0 q 0.92463,0 1.31237,0.35792 0.38775,0.32809 0.38775,0.8948 0,0.53688 -0.38775,0.8948 -0.38774,0.35792 -1.31237,0.35792 l -5.87584,0 z m 0,-12.46753 q -1.75977,-0.50705 -3.72833,-0.74566 -1.96855,-0.23862 -4.1459,-0.23862 -5.45827,0 -8.53041,2.35631 -2.32647,1.75977 -2.32647,4.20555 0,2.26682 1.75977,3.81781 1.78959,1.55098 5.18983,1.55098 3.2511,0 6.02497,-1.28254 2.80371,-1.31238 5.75654,-4.1459 l 0,-5.51793 z"
         style="font-style:normal;font-variant:normal;font-weight:normal;font-stretch:normal;font-size:61.08490372px;font-family:'Courier New';-inkscape-font-specification:'Courier New';fill:#0000ff;stroke:#000080;stroke-width:4.07232714;stroke-linecap:butt;stroke-linejoin:miter;stroke-miterlimit:4;stroke-dasharray:none;stroke-dashoffset:0;stroke-opacity:1"
         id="path6062" />
      <path
         d="m 300.58753,259.28673 0,3.78798 q 2.62474,-2.65457 4.74243,-3.66867 2.11769,-1.01411 4.77226,-1.01411 2.86336,0 5.21966,1.22289 1.67029,0.8948 3.01249,2.98266 1.37202,2.05804 1.37202,4.23538 l 0,15.77828 2.11769,0 q 0.8948,0 1.28254,0.35792 0.38775,0.32809 0.38775,0.8948 0,0.53688 -0.38775,0.8948 -0.38774,0.35792 -1.28254,0.35792 l -6.71099,0 q -0.92462,0 -1.31237,-0.35792 -0.38775,-0.35792 -0.38775,-0.8948 0,-0.56671 0.38775,-0.8948 0.38775,-0.35792 1.31237,-0.35792 l 2.08786,0 0,-15.3607 q 0,-2.65457 -1.93873,-4.474 -1.93873,-1.84925 -5.18983,-1.84925 -2.47561,0 -4.29503,1.01411 -1.81942,0.98428 -5.18983,4.95122 l 0,15.71862 2.83353,0 q 0.8948,0 1.28254,0.35792 0.38775,0.32809 0.38775,0.8948 0,0.53688 -0.38775,0.8948 -0.38774,0.35792 -1.28254,0.35792 l -8.17249,0 q -0.8948,0 -1.28255,-0.35792 -0.38774,-0.35792 -0.38774,-0.8948 0,-0.56671 0.38774,-0.8948 0.38775,-0.35792 1.28255,-0.35792 l 2.83353,0 0,-20.78915 -2.11769,0 q -0.8948,0 -1.28255,-0.35792 -0.38774,-0.35792 -0.38774,-0.92462 0,-0.53688 0.38774,-0.8948 0.38775,-0.35792 1.28255,-0.35792 l 4.62312,0 z"
         style="font-style:normal;font-variant:normal;font-weight:normal;font-stretch:normal;font-size:61.08490372px;font-family:'Courier New';-inkscape-font-specification:'Courier New';fill:#0000ff;stroke:#000080;stroke-width:4.07232714;stroke-linecap:butt;stroke-linejoin:miter;stroke-miterlimit:4;stroke-dasharray:none;stroke-dashoffset:0;stroke-opacity:1"
         id="path6064" />
      <path
         d="m 353.58942,260.92719 q 0,-0.86497 0.35792,-1.25271 0.35792,-0.38775 0.8948,-0.38775 0.56671,0 0.92463,0.38775 0.35792,0.38774 0.35792,1.31237 l 0,4.29503 q 0,0.8948 -0.35792,1.28254 -0.35792,0.38775 -0.92463,0.38775 -0.50705,0 -0.86497,-0.32809 -0.32809,-0.3281 -0.38775,-1.07376 -0.17896,-1.7896 -1.84925,-2.95284 -2.44578,-1.67029 -6.47237,-1.67029 -4.20555,0 -6.53203,1.70012 -1.75977,1.28255 -1.75977,2.86336 0,1.78959 2.08786,2.98266 1.43168,0.83514 5.42845,1.28254 5.21965,0.56671 7.24786,1.28255 2.89319,1.04393 4.29504,2.89318 1.43167,1.84925 1.43167,3.99676 0,3.19145 -3.07214,5.69689 -3.07214,2.47561 -9.00763,2.47561 -5.9355,0 -9.72348,-3.01249 0,1.0141 -0.11931,1.31237 -0.1193,0.29826 -0.4474,0.50705 -0.29826,0.20879 -0.68601,0.20879 -0.53688,0 -0.8948,-0.38775 -0.35792,-0.38774 -0.35792,-1.28254 l 0,-5.16001 q 0,-0.8948 0.3281,-1.28254 0.35792,-0.38775 0.92462,-0.38775 0.53688,0 0.8948,0.38775 0.38775,0.35792 0.38775,0.98428 0,1.37202 0.68601,2.29665 1.04393,1.43167 3.31075,2.38612 2.29665,0.92463 5.60741,0.92463 4.89156,0 7.27769,-1.81942 2.38613,-1.81943 2.38613,-3.84764 0,-2.32647 -2.41596,-3.72832 -2.44578,-1.40185 -7.12856,-1.87908 -4.65295,-0.47723 -6.68116,-1.25272 -2.02821,-0.77549 -3.16162,-2.32647 -1.13341,-1.55099 -1.13341,-3.34058 0,-3.22128 3.16162,-5.10035 3.16162,-1.90891 7.54613,-1.90891 5.18983,0 8.44093,2.53526 z"
         style="font-style:normal;font-variant:normal;font-weight:normal;font-stretch:normal;font-size:61.08490372px;font-family:'Courier New';-inkscape-font-specification:'Courier New';fill:#0000ff;stroke:#000080;stroke-width:4.07232714;stroke-linecap:butt;stroke-linejoin:miter;stroke-miterlimit:4;stroke-dasharray:none;stroke-dashoffset:0;stroke-opacity:1"
         id="path6066" />
      <path
         d="m 383.17743,246.43146 0,6.47237 -3.6985,0 0,-6.47237 3.6985,0 z m 0.0895,12.85527 0,23.32441 9.84278,0 q 0.92462,0 1.31237,0.35792 0.38775,0.32809 0.38775,0.8948 0,0.53688 -0.38775,0.8948 -0.38775,0.35792 -1.31237,0.35792 l -22.191,0 q -0.8948,0 -1.28255,-0.35792 -0.38774,-0.35792 -0.38774,-0.8948 0,-0.56671 0.38774,-0.8948 0.38775,-0.35792 1.28255,-0.35792 l 9.84278,0 0,-20.78915 -7.30752,0 q -0.8948,0 -1.31237,-0.35792 -0.38775,-0.35792 -0.38775,-0.8948 0,-0.5667 0.38775,-0.92462 0.38775,-0.35792 1.31237,-0.35792 l 9.81296,0 z"
         style="font-style:normal;font-variant:normal;font-weight:normal;font-stretch:normal;font-size:61.08490372px;font-family:'Courier New';-inkscape-font-specification:'Courier New';fill:#0000ff;stroke:#000080;stroke-width:4.07232714;stroke-linecap:butt;stroke-linejoin:miter;stroke-miterlimit:4;stroke-dasharray:none;stroke-dashoffset:0;stroke-opacity:1"
         id="path6068" />
      <path
         d="m 446.94672,247.68418 0,15.42036 q 2.38613,-2.59492 4.56347,-3.63885 2.20717,-1.07376 4.92139,-1.07376 2.92301,0 4.95122,1.04393 2.05804,1.01411 3.43006,3.16162 1.37203,2.11769 1.37203,4.474 l 0,15.53966 2.8037,0 q 0.92462,0 1.28254,0.35792 0.38775,0.32809 0.38775,0.8948 0,0.53688 -0.38775,0.8948 -0.35792,0.35792 -1.28254,0.35792 l -8.14267,0 q -0.92462,0 -1.31237,-0.35792 -0.38774,-0.35792 -0.38774,-0.8948 0,-0.56671 0.38774,-0.8948 0.38775,-0.35792 1.31237,-0.35792 l 2.8037,0 0,-15.3607 q 0,-2.71423 -1.96855,-4.53365 -1.93873,-1.81942 -5.42845,-1.81942 -2.74404,0 -4.68277,1.34219 -1.40185,0.95446 -4.62313,4.50382 l 0,15.86776 2.83353,0 q 0.8948,0 1.28254,0.35792 0.38775,0.32809 0.38775,0.8948 0,0.53688 -0.38775,0.8948 -0.38774,0.35792 -1.28254,0.35792 l -8.17249,0 q -0.8948,0 -1.28255,-0.35792 -0.38774,-0.35792 -0.38774,-0.8948 0,-0.56671 0.38774,-0.8948 0.38775,-0.35792 1.28255,-0.35792 l 2.83353,0 0,-32.3917 -3.37041,0 q -0.8948,0 -1.28255,-0.35792 -0.38774,-0.35792 -0.38774,-0.92462 0,-0.53688 0.38774,-0.8948 0.38775,-0.35792 1.28255,-0.35792 l 5.87584,0 z"
         style="font-style:normal;font-variant:normal;font-weight:normal;font-stretch:normal;font-size:61.08490372px;font-family:'Courier New';-inkscape-font-specification:'Courier New';fill:#ff00ff;stroke:#800080;stroke-width:4.07232714;stroke-linecap:butt;stroke-linejoin:miter;stroke-miterlimit:4;stroke-dasharray:none;stroke-dashoffset:0;stroke-opacity:1"
         id="path6070" />
      <path
         d="m 505.37707,272.79819 -25.53159,0 q 0.65619,4.86173 4.05642,7.8444 3.43006,2.95283 8.47076,2.95283 2.8037,0 5.87585,-0.92463 3.07214,-0.92462 5.01087,-2.44578 0.5667,-0.4474 0.98427,-0.4474 0.47723,0 0.83515,0.38775 0.35792,0.35792 0.35792,0.86497 0,0.50705 -0.47723,0.98428 -1.43167,1.49133 -5.10035,2.8037 -3.63884,1.28255 -7.48648,1.28255 -6.44255,0 -10.7674,-4.20556 -4.29504,-4.23538 -4.29504,-10.23053 0,-5.45827 4.0266,-9.36555 4.05642,-3.90729 10.02174,-3.90729 6.14428,0 10.11122,4.02659 3.96694,3.99677 3.90729,10.37967 z m -2.53527,-2.53527 q -0.74566,-4.1459 -3.93711,-6.74081 -3.16162,-2.59492 -7.54613,-2.59492 -4.38451,0 -7.54614,2.56509 -3.16162,2.56509 -3.93711,6.77064 l 22.96649,0 z"
         style="font-style:normal;font-variant:normal;font-weight:normal;font-stretch:normal;font-size:61.08490372px;font-family:'Courier New';-inkscape-font-specification:'Courier New';fill:#ff00ff;stroke:#800080;stroke-width:4.07232714;stroke-linecap:butt;stroke-linejoin:miter;stroke-miterlimit:4;stroke-dasharray:none;stroke-dashoffset:0;stroke-opacity:1"
         id="path6072" />
      <path
         d="m 529.71559,247.68418 0,34.92696 9.84278,0 q 0.92463,0 1.31237,0.35792 0.38775,0.32809 0.38775,0.8948 0,0.53688 -0.38775,0.8948 -0.38774,0.35792 -1.31237,0.35792 l -22.191,0 q -0.89479,0 -1.28254,-0.35792 -0.38775,-0.35792 -0.38775,-0.8948 0,-0.56671 0.38775,-0.8948 0.38775,-0.35792 1.28254,-0.35792 l 9.84279,0 0,-32.3917 -7.21804,0 q -0.8948,0 -1.31238,-0.35792 -0.38774,-0.35792 -0.38774,-0.92462 0,-0.53688 0.38774,-0.8948 0.38775,-0.35792 1.31238,-0.35792 l 9.72347,0 z"
         style="font-style:normal;font-variant:normal;font-weight:normal;font-stretch:normal;font-size:61.08490372px;font-family:'Courier New';-inkscape-font-specification:'Courier New';fill:#ff00ff;stroke:#800080;stroke-width:4.07232714;stroke-linecap:butt;stroke-linejoin:miter;stroke-miterlimit:4;stroke-dasharray:none;stroke-dashoffset:0;stroke-opacity:1"
         id="path6074" />
      <path
         d="m 555.63491,259.28673 0,4.56347 q 2.237,-2.71422 4.80209,-4.08624 2.56509,-1.37203 6.0548,-1.37203 3.6985,0 6.83029,1.72995 3.1318,1.72994 4.83192,4.83191 1.72994,3.07214 1.72994,6.47237 0,5.39862 -3.87746,9.24625 -3.84763,3.81781 -9.48486,3.81781 -6.71099,0 -10.88672,-5.45827 l 0,15.09226 6.08463,0 q 0.8948,0 1.28255,0.3281 0.38774,0.35792 0.38774,0.92462 0,0.53688 -0.38774,0.8948 -0.38775,0.35792 -1.28255,0.35792 l -11.96047,0 q -0.8948,0 -1.28254,-0.35792 -0.38775,-0.32809 -0.38775,-0.8948 0,-0.5667 0.38775,-0.92462 0.38774,-0.3281 1.28254,-0.3281 l 3.37041,0 0,-32.30222 -3.37041,0 q -0.8948,0 -1.28254,-0.35792 -0.38775,-0.35792 -0.38775,-0.92462 0,-0.53688 0.38775,-0.8948 0.38774,-0.35792 1.28254,-0.35792 l 5.87584,0 z m 21.71378,12.13943 q 0,-4.32486 -3.16162,-7.397 -3.1318,-3.10197 -7.66544,-3.10197 -4.56348,0 -7.7251,3.10197 -3.16162,3.10197 -3.16162,7.397 0,4.32486 3.16162,7.42683 3.16162,3.10197 7.7251,3.10197 4.50382,0 7.66544,-3.07214 3.16162,-3.10197 3.16162,-7.45666 z"
         style="font-style:normal;font-variant:normal;font-weight:normal;font-stretch:normal;font-size:61.08490372px;font-family:'Courier New';-inkscape-font-specification:'Courier New';fill:#ff00ff;stroke:#800080;stroke-width:4.07232714;stroke-linecap:butt;stroke-linejoin:miter;stroke-miterlimit:4;stroke-dasharray:none;stroke-dashoffset:0;stroke-opacity:1"
         id="path6076" />
      <path
         d="m 615.25831,272.79819 -25.53158,0 q 0.65618,4.86173 4.05642,7.8444 3.43006,2.95283 8.47075,2.95283 2.8037,0 5.87585,-0.92463 3.07214,-0.92462 5.01087,-2.44578 0.5667,-0.4474 0.98428,-0.4474 0.47722,0 0.83514,0.38775 0.35792,0.35792 0.35792,0.86497 0,0.50705 -0.47723,0.98428 -1.43167,1.49133 -5.10035,2.8037 -3.63884,1.28255 -7.48648,1.28255 -6.44255,0 -10.7674,-4.20556 -4.29504,-4.23538 -4.29504,-10.23053 0,-5.45827 4.0266,-9.36555 4.05642,-3.90729 10.02174,-3.90729 6.14428,0 10.11122,4.02659 3.96694,3.99677 3.90729,10.37967 z m -2.53527,-2.53527 q -0.74566,-4.1459 -3.93711,-6.74081 -3.16162,-2.59492 -7.54613,-2.59492 -4.38451,0 -7.54613,2.56509 -3.16163,2.56509 -3.93712,6.77064 l 22.96649,0 z"
         style="font-style:normal;font-variant:normal;font-weight:normal;font-stretch:normal;font-size:61.08490372px;font-family:'Courier New';-inkscape-font-specification:'Courier New';fill:#ff00ff;stroke:#800080;stroke-width:4.07232714;stroke-linecap:butt;stroke-linejoin:miter;stroke-miterlimit:4;stroke-dasharray:none;stroke-dashoffset:0;stroke-opacity:1"
         id="path6078" />
      <path
         d="m 635.33161,259.28673 0,6.32324 q 4.89157,-4.41434 7.30752,-5.66705 2.44578,-1.28255 4.50382,-1.28255 2.237,0 4.1459,1.52116 1.93873,1.49133 1.93873,2.26682 0,0.56671 -0.38775,0.95445 -0.35792,0.35792 -0.92462,0.35792 -0.29827,0 -0.50705,-0.0895 -0.20879,-0.1193 -0.7755,-0.68601 -1.04393,-1.04393 -1.81942,-1.43168 -0.77549,-0.38774 -1.52116,-0.38774 -1.64046,0 -3.96694,1.31237 -2.29665,1.31237 -7.99353,6.41272 l 0,13.72024 11.0955,0 q 0.92463,0 1.31237,0.35792 0.38775,0.32809 0.38775,0.8948 0,0.53688 -0.38775,0.8948 -0.38774,0.35792 -1.31237,0.35792 l -19.65574,0 q -0.89479,0 -1.28254,-0.3281 -0.38775,-0.35791 -0.38775,-0.89479 0,-0.50706 0.35792,-0.83515 0.38775,-0.35792 1.31237,-0.35792 l 6.05481,0 0,-20.87863 -4.62313,0 q -0.8948,0 -1.28254,-0.35792 -0.38775,-0.35792 -0.38775,-0.92462 0,-0.53688 0.35792,-0.8948 0.38775,-0.35792 1.31237,-0.35792 l 7.12856,0 z"
         style="font-style:normal;font-variant:normal;font-weight:normal;font-stretch:normal;font-size:61.08490372px;font-family:'Courier New';-inkscape-font-specification:'Courier New';fill:#ff00ff;stroke:#800080;stroke-width:4.07232714;stroke-linecap:butt;stroke-linejoin:miter;stroke-miterlimit:4;stroke-dasharray:none;stroke-dashoffset:0;stroke-opacity:1"
         id="path6080" />
    </g>
    <g
       style="font-style:normal;font-weight:normal;font-size:471.55233765px;line-height:125%;font-family:sans-serif;letter-spacing:0px;word-spacing:0px;fill:#000000;fill-opacity:1;stroke:none;stroke-width:0.5;stroke-linecap:butt;stroke-linejoin:miter;stroke-miterlimit:4;stroke-dasharray:none;stroke-dashoffset:0;stroke-opacity:1"
       id="text4307-1-5">
      <path
         d="m 279.40753,284.68011 0,-3.60902 q -5.45827,4.5933 -11.66221,4.5933 -4.50382,0 -7.03908,-2.26682 -2.53526,-2.29665 -2.53526,-5.6074 0,-3.63885 3.34058,-6.35307 3.34058,-2.71422 9.7533,-2.71422 1.72995,0 3.75815,0.23861 2.02821,0.20879 4.38452,0.68601 l 0,-4.05642 q 0,-2.05803 -1.90891,-3.57919 -1.9089,-1.52116 -5.72671,-1.52116 -2.923,0 -8.20231,1.70012 -0.95446,0.29826 -1.2229,0.29826 -0.47722,0 -0.83514,-0.35791 -0.32809,-0.35792 -0.32809,-0.8948 0,-0.50706 0.29826,-0.80532 0.41757,-0.4474 3.37041,-1.22289 4.65295,-1.25272 7.03908,-1.25272 4.74243,0 7.397,2.3563 2.65457,2.32648 2.65457,5.27931 l 0,16.5836 3.34058,0 q 0.92462,0 1.31237,0.35792 0.38775,0.32809 0.38775,0.8948 0,0.53688 -0.38775,0.8948 -0.38775,0.35791 -1.31237,0.35791 l -5.87584,0 z m 0,-12.46752 q -1.75977,-0.50705 -3.72833,-0.74566 -1.96856,-0.23862 -4.1459,-0.23862 -5.45827,0 -8.53041,2.3563 -2.32648,1.75977 -2.32648,4.20556 0,2.26682 1.75977,3.8178 1.7896,1.55099 5.18983,1.55099 3.25111,0 6.02498,-1.28255 2.8037,-1.31237 5.75654,-4.1459 l 0,-5.51792 z"
         style="font-style:normal;font-variant:normal;font-weight:normal;font-stretch:normal;font-size:61.08490372px;font-family:'Courier New';-inkscape-font-specification:'Courier New';fill:#0000ff;stroke:none;stroke-width:0.5;stroke-linecap:butt;stroke-linejoin:miter;stroke-miterlimit:4;stroke-dasharray:none;stroke-dashoffset:0;stroke-opacity:1"
         id="path6041" />
      <path
         d="m 300.73356,258.85027 0,3.78798 q 2.62474,-2.65457 4.74243,-3.66868 2.11769,-1.0141 4.77226,-1.0141 2.86335,0 5.21965,1.22289 1.67029,0.8948 3.01249,2.98266 1.37203,2.05804 1.37203,4.23538 l 0,15.77828 2.11769,0 q 0.89479,0 1.28254,0.35792 0.38775,0.32809 0.38775,0.8948 0,0.53688 -0.38775,0.8948 -0.38775,0.35791 -1.28254,0.35791 l -6.71099,0 q -0.92463,0 -1.31237,-0.35791 -0.38775,-0.35792 -0.38775,-0.8948 0,-0.56671 0.38775,-0.8948 0.38774,-0.35792 1.31237,-0.35792 l 2.08786,0 0,-15.36071 q 0,-2.65457 -1.93873,-4.47399 -1.93873,-1.84925 -5.18983,-1.84925 -2.47561,0 -4.29503,1.01411 -1.81943,0.98427 -5.18983,4.95121 l 0,15.71863 2.83353,0 q 0.89479,0 1.28254,0.35792 0.38775,0.32809 0.38775,0.8948 0,0.53688 -0.38775,0.8948 -0.38775,0.35791 -1.28254,0.35791 l -8.1725,0 q -0.89479,0 -1.28254,-0.35791 -0.38775,-0.35792 -0.38775,-0.8948 0,-0.56671 0.38775,-0.8948 0.38775,-0.35792 1.28254,-0.35792 l 2.83353,0 0,-20.78915 -2.11769,0 q -0.8948,0 -1.28254,-0.35792 -0.38775,-0.35792 -0.38775,-0.92462 0,-0.53688 0.38775,-0.8948 0.38774,-0.35792 1.28254,-0.35792 l 4.62313,0 z"
         style="font-style:normal;font-variant:normal;font-weight:normal;font-stretch:normal;font-size:61.08490372px;font-family:'Courier New';-inkscape-font-specification:'Courier New';fill:#0000ff;stroke:none;stroke-width:0.5;stroke-linecap:butt;stroke-linejoin:miter;stroke-miterlimit:4;stroke-dasharray:none;stroke-dashoffset:0;stroke-opacity:1"
         id="path6043" />
      <path
         d="m 353.73545,260.49073 q 0,-0.86497 0.35792,-1.25272 0.35792,-0.38774 0.8948,-0.38774 0.5667,0 0.92462,0.38774 0.35792,0.38775 0.35792,1.31237 l 0,4.29504 q 0,0.8948 -0.35792,1.28254 -0.35792,0.38775 -0.92462,0.38775 -0.50705,0 -0.86497,-0.3281 -0.3281,-0.32809 -0.38775,-1.07375 -0.17896,-1.7896 -1.84925,-2.95284 -2.44578,-1.67029 -6.47237,-1.67029 -4.20556,0 -6.53203,1.70012 -1.75977,1.28254 -1.75977,2.86335 0,1.7896 2.08786,2.98266 1.43168,0.83515 5.42844,1.28255 5.21966,0.5667 7.24787,1.28254 2.89318,1.04393 4.29503,2.89318 1.43168,1.84925 1.43168,3.99677 0,3.19145 -3.07214,5.69688 -3.07214,2.47561 -9.00764,2.47561 -5.93549,0 -9.72347,-3.01248 0,1.0141 -0.11931,1.31237 -0.11931,0.29826 -0.4474,0.50705 -0.29827,0.20878 -0.68601,0.20878 -0.53688,0 -0.8948,-0.38774 -0.35792,-0.38775 -0.35792,-1.28255 l 0,-5.16 q 0,-0.8948 0.32809,-1.28254 0.35792,-0.38775 0.92463,-0.38775 0.53688,0 0.8948,0.38775 0.38774,0.35792 0.38774,0.98427 0,1.37203 0.68601,2.29665 1.04394,1.43168 3.31076,2.38613 2.29665,0.92463 5.6074,0.92463 4.89157,0 7.2777,-1.81943 2.38612,-1.81942 2.38612,-3.84763 0,-2.32647 -2.41595,-3.72833 -2.44578,-1.40185 -7.12856,-1.87907 -4.65295,-0.47723 -6.68116,-1.25272 -2.02821,-0.77549 -3.16162,-2.32648 -1.13342,-1.55098 -1.13342,-3.34058 0,-3.22127 3.16163,-5.10035 3.16162,-1.9089 7.54613,-1.9089 5.18983,0 8.44093,2.53526 z"
         style="font-style:normal;font-variant:normal;font-weight:normal;font-stretch:normal;font-size:61.08490372px;font-family:'Courier New';-inkscape-font-specification:'Courier New';fill:#0000ff;stroke:none;stroke-width:0.5;stroke-linecap:butt;stroke-linejoin:miter;stroke-miterlimit:4;stroke-dasharray:none;stroke-dashoffset:0;stroke-opacity:1"
         id="path6045" />
      <path
         d="m 383.32345,245.995 0,6.47237 -3.6985,0 0,-6.47237 3.6985,0 z m 0.0895,12.85527 0,23.32441 9.84278,0 q 0.92463,0 1.31238,0.35792 0.38774,0.32809 0.38774,0.8948 0,0.53688 -0.38774,0.8948 -0.38775,0.35791 -1.31238,0.35791 l -22.191,0 q -0.89479,0 -1.28254,-0.35791 -0.38775,-0.35792 -0.38775,-0.8948 0,-0.56671 0.38775,-0.8948 0.38775,-0.35792 1.28254,-0.35792 l 9.84279,0 0,-20.78915 -7.30752,0 q -0.8948,0 -1.31237,-0.35792 -0.38775,-0.35792 -0.38775,-0.8948 0,-0.5667 0.38775,-0.92462 0.38774,-0.35792 1.31237,-0.35792 l 9.81295,0 z"
         style="font-style:normal;font-variant:normal;font-weight:normal;font-stretch:normal;font-size:61.08490372px;font-family:'Courier New';-inkscape-font-specification:'Courier New';fill:#0000ff;stroke:none;stroke-width:0.5;stroke-linecap:butt;stroke-linejoin:miter;stroke-miterlimit:4;stroke-dasharray:none;stroke-dashoffset:0;stroke-opacity:1"
         id="path6047" />
      <path
         d="m 447.09275,247.24772 0,15.42035 q 2.38613,-2.59491 4.56347,-3.63884 2.20717,-1.07376 4.92139,-1.07376 2.92301,0 4.95122,1.04393 2.05803,1.01411 3.43006,3.16162 1.37202,2.11769 1.37202,4.47399 l 0,15.53967 2.8037,0 q 0.92463,0 1.28255,0.35792 0.38775,0.32809 0.38775,0.8948 0,0.53688 -0.38775,0.8948 -0.35792,0.35791 -1.28255,0.35791 l -8.14266,0 q -0.92463,0 -1.31237,-0.35791 -0.38775,-0.35792 -0.38775,-0.8948 0,-0.56671 0.38775,-0.8948 0.38774,-0.35792 1.31237,-0.35792 l 2.8037,0 0,-15.36071 q 0,-2.71422 -1.96856,-4.53364 -1.93873,-1.81943 -5.42844,-1.81943 -2.74405,0 -4.68278,1.3422 -1.40185,0.95445 -4.62312,4.50382 l 0,15.86776 2.83353,0 q 0.89479,0 1.28254,0.35792 0.38775,0.32809 0.38775,0.8948 0,0.53688 -0.38775,0.8948 -0.38775,0.35791 -1.28254,0.35791 l -8.1725,0 q -0.89479,0 -1.28254,-0.35791 -0.38775,-0.35792 -0.38775,-0.8948 0,-0.56671 0.38775,-0.8948 0.38775,-0.35792 1.28254,-0.35792 l 2.83353,0 0,-32.3917 -3.37041,0 q -0.89479,0 -1.28254,-0.35792 -0.38775,-0.35792 -0.38775,-0.92463 0,-0.53688 0.38775,-0.8948 0.38775,-0.35791 1.28254,-0.35791 l 5.87585,0 z"
         style="font-style:normal;font-variant:normal;font-weight:normal;font-stretch:normal;font-size:61.08490372px;font-family:'Courier New';-inkscape-font-specification:'Courier New';fill:#ff00ff;stroke:none;stroke-width:0.5;stroke-linecap:butt;stroke-linejoin:miter;stroke-miterlimit:4;stroke-dasharray:none;stroke-dashoffset:0;stroke-opacity:1"
         id="path6049" />
      <path
         d="m 505.52309,272.36172 -25.53158,0 q 0.65619,4.86174 4.05642,7.8444 3.43006,2.95284 8.47076,2.95284 2.8037,0 5.87584,-0.92463 3.07214,-0.92462 5.01087,-2.44578 0.56671,-0.4474 0.98428,-0.4474 0.47723,0 0.83515,0.38775 0.35792,0.35792 0.35792,0.86497 0,0.50705 -0.47723,0.98428 -1.43168,1.49133 -5.10035,2.8037 -3.63885,1.28254 -7.48648,1.28254 -6.44255,0 -10.76741,-4.20555 -4.29503,-4.23538 -4.29503,-10.23053 0,-5.45827 4.02659,-9.36555 4.05642,-3.90729 10.02174,-3.90729 6.14429,0 10.11123,4.02659 3.96694,3.99677 3.90728,10.37966 z m -2.53526,-2.53526 q -0.74567,-4.1459 -3.93711,-6.74081 -3.16162,-2.59492 -7.54614,-2.59492 -4.38451,0 -7.54613,2.56509 -3.16162,2.56509 -3.93711,6.77064 l 22.96649,0 z"
         style="font-style:normal;font-variant:normal;font-weight:normal;font-stretch:normal;font-size:61.08490372px;font-family:'Courier New';-inkscape-font-specification:'Courier New';fill:#ff00ff;stroke:none;stroke-width:0.5;stroke-linecap:butt;stroke-linejoin:miter;stroke-miterlimit:4;stroke-dasharray:none;stroke-dashoffset:0;stroke-opacity:1"
         id="path6051" />
      <path
         d="m 529.86162,247.24772 0,34.92696 9.84278,0 q 0.92463,0 1.31237,0.35792 0.38775,0.32809 0.38775,0.8948 0,0.53688 -0.38775,0.8948 -0.38774,0.35791 -1.31237,0.35791 l -22.191,0 q -0.8948,0 -1.28254,-0.35791 -0.38775,-0.35792 -0.38775,-0.8948 0,-0.56671 0.38775,-0.8948 0.38774,-0.35792 1.28254,-0.35792 l 9.84278,0 0,-32.3917 -7.21804,0 q -0.8948,0 -1.31237,-0.35792 -0.38774,-0.35792 -0.38774,-0.92463 0,-0.53688 0.38774,-0.8948 0.38775,-0.35791 1.31237,-0.35791 l 9.72348,0 z"
         style="font-style:normal;font-variant:normal;font-weight:normal;font-stretch:normal;font-size:61.08490372px;font-family:'Courier New';-inkscape-font-specification:'Courier New';fill:#ff00ff;stroke:none;stroke-width:0.5;stroke-linecap:butt;stroke-linejoin:miter;stroke-miterlimit:4;stroke-dasharray:none;stroke-dashoffset:0;stroke-opacity:1"
         id="path6053" />
      <path
         d="m 555.78094,258.85027 0,4.56347 q 2.237,-2.71422 4.80208,-4.08625 2.56509,-1.37202 6.05481,-1.37202 3.6985,0 6.83029,1.72994 3.1318,1.72995 4.83191,4.83191 1.72995,3.07215 1.72995,6.47238 0,5.39862 -3.87746,9.24625 -3.84764,3.81781 -9.48487,3.81781 -6.71098,0 -10.88671,-5.45827 l 0,15.09226 6.08463,0 q 0.8948,0 1.28254,0.32809 0.38775,0.35792 0.38775,0.92463 0,0.53688 -0.38775,0.8948 -0.38774,0.35792 -1.28254,0.35792 l -11.96047,0 q -0.8948,0 -1.28255,-0.35792 -0.38774,-0.32809 -0.38774,-0.8948 0,-0.56671 0.38774,-0.92463 0.38775,-0.32809 1.28255,-0.32809 l 3.3704,0 0,-32.30222 -3.3704,0 q -0.8948,0 -1.28255,-0.35792 -0.38774,-0.35792 -0.38774,-0.92462 0,-0.53688 0.38774,-0.8948 0.38775,-0.35792 1.28255,-0.35792 l 5.87584,0 z m 21.71377,12.13943 q 0,-4.32486 -3.16162,-7.397 -3.13179,-3.10197 -7.66544,-3.10197 -4.56347,0 -7.72509,3.10197 -3.16162,3.10197 -3.16162,7.397 0,4.32486 3.16162,7.42683 3.16162,3.10196 7.72509,3.10196 4.50382,0 7.66544,-3.07214 3.16162,-3.10197 3.16162,-7.45665 z"
         style="font-style:normal;font-variant:normal;font-weight:normal;font-stretch:normal;font-size:61.08490372px;font-family:'Courier New';-inkscape-font-specification:'Courier New';fill:#ff00ff;stroke:none;stroke-width:0.5;stroke-linecap:butt;stroke-linejoin:miter;stroke-miterlimit:4;stroke-dasharray:none;stroke-dashoffset:0;stroke-opacity:1"
         id="path6055" />
      <path
         d="m 615.40433,272.36172 -25.53158,0 q 0.65619,4.86174 4.05642,7.8444 3.43006,2.95284 8.47076,2.95284 2.8037,0 5.87584,-0.92463 3.07214,-0.92462 5.01087,-2.44578 0.56671,-0.4474 0.98428,-0.4474 0.47723,0 0.83515,0.38775 0.35792,0.35792 0.35792,0.86497 0,0.50705 -0.47723,0.98428 -1.43168,1.49133 -5.10035,2.8037 -3.63885,1.28254 -7.48648,1.28254 -6.44255,0 -10.76741,-4.20555 -4.29503,-4.23538 -4.29503,-10.23053 0,-5.45827 4.02659,-9.36555 4.05642,-3.90729 10.02175,-3.90729 6.14428,0 10.11122,4.02659 3.96694,3.99677 3.90728,10.37966 z m -2.53526,-2.53526 q -0.74566,-4.1459 -3.93711,-6.74081 -3.16162,-2.59492 -7.54613,-2.59492 -4.38452,0 -7.54614,2.56509 -3.16162,2.56509 -3.93711,6.77064 l 22.96649,0 z"
         style="font-style:normal;font-variant:normal;font-weight:normal;font-stretch:normal;font-size:61.08490372px;font-family:'Courier New';-inkscape-font-specification:'Courier New';fill:#ff00ff;stroke:none;stroke-width:0.5;stroke-linecap:butt;stroke-linejoin:miter;stroke-miterlimit:4;stroke-dasharray:none;stroke-dashoffset:0;stroke-opacity:1"
         id="path6057" />
      <path
         d="m 635.47764,258.85027 0,6.32324 q 4.89156,-4.41434 7.30752,-5.66706 2.44578,-1.28254 4.50382,-1.28254 2.23699,0 4.1459,1.52116 1.93873,1.49133 1.93873,2.26682 0,0.5667 -0.38775,0.95445 -0.35792,0.35792 -0.92462,0.35792 -0.29827,0 -0.50706,-0.0895 -0.20878,-0.11931 -0.77549,-0.68601 -1.04393,-1.04393 -1.81942,-1.43168 -0.77549,-0.38775 -1.52116,-0.38775 -1.64046,0 -3.96694,1.31238 -2.29665,1.31237 -7.99353,6.41272 l 0,13.72024 11.0955,0 q 0.92462,0 1.31237,0.35792 0.38775,0.32809 0.38775,0.8948 0,0.53688 -0.38775,0.8948 -0.38775,0.35791 -1.31237,0.35791 l -19.65574,0 q -0.8948,0 -1.28254,-0.32809 -0.38775,-0.35792 -0.38775,-0.8948 0,-0.50705 0.35792,-0.83514 0.38775,-0.35792 1.31237,-0.35792 l 6.0548,0 0,-20.87863 -4.62312,0 q -0.8948,0 -1.28255,-0.35792 -0.38774,-0.35792 -0.38774,-0.92462 0,-0.53688 0.35792,-0.8948 0.38774,-0.35792 1.31237,-0.35792 l 7.12856,0 z"
         style="font-style:normal;font-variant:normal;font-weight:normal;font-stretch:normal;font-size:61.08490372px;font-family:'Courier New';-inkscape-font-specification:'Courier New';fill:#ff00ff;stroke:none;stroke-width:0.5;stroke-linecap:butt;stroke-linejoin:miter;stroke-miterlimit:4;stroke-dasharray:none;stroke-dashoffset:0;stroke-opacity:1"
         id="path6059" />
    </g>
    <g
       id="g6031"
       transform="matrix(8.1446539,0,0,8.1446539,-825.22627,-2108.1091)">
      <g
         style="font-style:normal;font-weight:normal;font-size:57.41148376px;line-height:125%;font-family:sans-serif;letter-spacing:0px;word-spacing:0px;fill:#000000;fill-opacity:1;stroke:#000000;stroke-width:0.5;stroke-linecap:butt;stroke-linejoin:miter;stroke-miterlimit:4;stroke-dasharray:none;stroke-opacity:1"
         id="text4307">
        <path
           d="m 116.90062,268.72357 -1.42822,-2.86011 -0.0916,0 q -0.10986,0 -0.15747,-0.0439 -0.0476,-0.0439 -0.0476,-0.10986 0,-0.0476 0.022,-0.0842 0.0256,-0.0403 0.0623,-0.0549 0.0403,-0.0183 0.12085,-0.0183 l 0.84229,0 q 0.10986,0 0.15747,0.0439 0.0476,0.0439 0.0476,0.11353 0,0.0659 -0.0476,0.10986 -0.0476,0.0439 -0.15747,0.0439 l -0.41382,0 1.2561,2.5232 1.2378,-2.5232 -0.41382,0 q -0.10986,0 -0.15747,-0.0439 -0.0476,-0.0439 -0.0476,-0.11353 0,-0.0659 0.0476,-0.10986 0.0476,-0.0439 0.15747,-0.0439 l 0.83862,0 q 0.11353,0 0.16113,0.0439 0.0476,0.0439 0.0476,0.11353 0,0.0476 -0.0293,0.0879 -0.0293,0.0403 -0.0659,0.0549 -0.0366,0.011 -0.20508,0.011 l -1.94824,3.96607 0.47973,0 q 0.10987,0 0.15747,0.0403 0.0476,0.044 0.0476,0.11353 0,0.0659 -0.0476,0.10986 -0.0476,0.0439 -0.15747,0.0439 l -1.77246,0 q -0.10986,0 -0.15747,-0.0439 -0.0476,-0.0403 -0.0476,-0.10986 0,-0.0696 0.0476,-0.11353 0.0476,-0.0403 0.15747,-0.0403 l 0.96314,0 0.54199,-1.10596 z"
           style="font-style:normal;font-variant:normal;font-weight:normal;font-stretch:normal;font-size:7.5px;font-family:'Courier New';-inkscape-font-specification:'Courier New';fill:#ffffff;stroke:#808080;stroke-width:0.5;stroke-miterlimit:4;stroke-dasharray:none"
           id="path6083" />
        <path
           d="m 123.04198,267.21112 -3.13477,0 q 0.0806,0.59692 0.49805,0.96314 0.42114,0.36254 1.04004,0.36254 0.34424,0 0.72143,-0.11352 0.3772,-0.11353 0.61524,-0.30029 0.0696,-0.0549 0.12085,-0.0549 0.0586,0 0.10254,0.0476 0.0439,0.0439 0.0439,0.1062 0,0.0623 -0.0586,0.12085 -0.17578,0.18311 -0.62622,0.34424 -0.44678,0.15747 -0.91919,0.15747 -0.79102,0 -1.32202,-0.51636 -0.52735,-0.52002 -0.52735,-1.2561 0,-0.67017 0.49439,-1.1499 0.49804,-0.47974 1.23047,-0.47974 0.75439,0 1.24145,0.49439 0.48706,0.49072 0.47974,1.27441 z m -0.31128,-0.31128 q -0.0916,-0.50903 -0.4834,-0.82764 -0.38818,-0.3186 -0.92651,-0.3186 -0.53833,0 -0.92652,0.31494 -0.38818,0.31494 -0.4834,0.8313 l 2.81983,0 z"
           style="font-style:normal;font-variant:normal;font-weight:normal;font-stretch:normal;font-size:7.5px;font-family:'Courier New';-inkscape-font-specification:'Courier New';fill:#ffffff;stroke:#808080;stroke-width:0.5;stroke-miterlimit:4;stroke-dasharray:none"
           id="path6085" />
        <path
           d="m 125.2429,265.55219 1.66993,0 q 0.10986,0 0.15747,0.0439 0.0476,0.0439 0.0476,0.11353 0,0.0659 -0.0476,0.10986 -0.0476,0.0439 -0.15747,0.0439 l -1.66993,0 0,2.04712 q 0,0.26734 0.21241,0.44678 0.21606,0.17944 0.62988,0.17944 0.31128,0 0.67383,-0.0916 0.36255,-0.0952 0.56396,-0.2124 0.0732,-0.0476 0.12085,-0.0476 0.0586,0 0.10254,0.0476 0.044,0.0439 0.044,0.1062 0,0.0549 -0.0476,0.10254 -0.11719,0.12085 -0.57129,0.26367 -0.45044,0.13916 -0.86426,0.13916 -0.53833,0 -0.85693,-0.25268 -0.3186,-0.25269 -0.3186,-0.68116 l 0,-2.04712 -0.56763,0 q -0.10986,0 -0.15747,-0.0439 -0.0476,-0.0439 -0.0476,-0.11353 0,-0.0659 0.0476,-0.10986 0.0476,-0.0439 0.15747,-0.0439 l 0.56763,0 0,-0.90821 q 0,-0.10986 0.0439,-0.15747 0.0439,-0.0476 0.10986,-0.0476 0.0696,0 0.11353,0.0476 0.0439,0.0476 0.0439,0.15747 l 0,0.90821 z"
           style="font-style:normal;font-variant:normal;font-weight:normal;font-stretch:normal;font-size:7.5px;font-family:'Courier New';-inkscape-font-specification:'Courier New';fill:#ffffff;stroke:#808080;stroke-width:0.5;stroke-miterlimit:4;stroke-dasharray:none"
           id="path6087" />
        <path
           d="m 136.53319,267.21112 -3.13477,0 q 0.0806,0.59692 0.49805,0.96314 0.42114,0.36254 1.04004,0.36254 0.34424,0 0.72143,-0.11352 0.3772,-0.11353 0.61524,-0.30029 0.0696,-0.0549 0.12085,-0.0549 0.0586,0 0.10254,0.0476 0.0439,0.0439 0.0439,0.1062 0,0.0623 -0.0586,0.12085 -0.17578,0.18311 -0.62622,0.34424 -0.44678,0.15747 -0.91919,0.15747 -0.79102,0 -1.32202,-0.51636 -0.52735,-0.52002 -0.52735,-1.2561 0,-0.67017 0.49439,-1.1499 0.49804,-0.47974 1.23047,-0.47974 0.75439,0 1.24145,0.49439 0.48706,0.49072 0.47974,1.27441 z m -0.31128,-0.31128 q -0.0916,-0.50903 -0.4834,-0.82764 -0.38818,-0.3186 -0.92651,-0.3186 -0.53833,0 -0.92652,0.31494 -0.38818,0.31494 -0.4834,0.8313 l 2.81983,0 z"
           style="font-style:normal;font-variant:normal;font-weight:normal;font-stretch:normal;font-size:7.5px;font-family:'Courier New';-inkscape-font-specification:'Courier New';fill:#000000;stroke:#cccccc;stroke-width:0.5;stroke-miterlimit:4;stroke-dasharray:none;stroke-opacity:1"
           id="path6089" />
        <path
           d="m 138.37157,265.55219 0,0.46508 q 0.32226,-0.32592 0.58227,-0.45044 0.26001,-0.12451 0.58594,-0.12451 0.35156,0 0.64087,0.15015 0.20508,0.10986 0.36987,0.36621 0.16846,0.25268 0.16846,0.52002 l 0,1.93725 0.26001,0 q 0.10986,0 0.15747,0.0439 0.0476,0.0403 0.0476,0.10986 0,0.0659 -0.0476,0.10987 -0.0476,0.0439 -0.15747,0.0439 l -0.82398,0 q -0.11352,0 -0.16113,-0.0439 -0.0476,-0.0439 -0.0476,-0.10987 0,-0.0696 0.0476,-0.10986 0.0476,-0.0439 0.16113,-0.0439 l 0.25635,0 0,-1.88598 q 0,-0.32593 -0.23804,-0.54932 -0.23803,-0.22705 -0.6372,-0.22705 -0.30396,0 -0.52735,0.12451 -0.22338,0.12085 -0.6372,0.60791 l 0,1.92993 0.3479,0 q 0.10986,0 0.15747,0.0439 0.0476,0.0403 0.0476,0.10986 0,0.0659 -0.0476,0.10987 -0.0476,0.0439 -0.15747,0.0439 l -1.00342,0 q -0.10986,0 -0.15747,-0.0439 -0.0476,-0.0439 -0.0476,-0.10987 0,-0.0696 0.0476,-0.10986 0.0476,-0.0439 0.15747,-0.0439 l 0.3479,0 0,-2.55249 -0.26001,0 q -0.10986,0 -0.15747,-0.0439 -0.0476,-0.0439 -0.0476,-0.11353 0,-0.0659 0.0476,-0.10986 0.0476,-0.0439 0.15747,-0.0439 l 0.56763,0 z"
           style="font-style:normal;font-variant:normal;font-weight:normal;font-stretch:normal;font-size:7.5px;font-family:'Courier New';-inkscape-font-specification:'Courier New';fill:#000000;stroke:#cccccc;stroke-width:0.5;stroke-miterlimit:4;stroke-dasharray:none;stroke-opacity:1"
           id="path6091" />
        <path
           d="m 145.58226,267.1452 q 0,0.70313 -0.50537,1.20117 -0.50171,0.49805 -1.21216,0.49805 -0.71777,0 -1.21948,-0.49805 -0.50171,-0.5017 -0.50171,-1.20117 0,-0.70312 0.50171,-1.20117 0.50171,-0.50171 1.21948,-0.50171 0.71045,0 1.21216,0.49805 0.50537,0.49805 0.50537,1.20483 z m -0.31128,0 q 0,-0.57861 -0.41382,-0.9851 -0.41015,-0.4065 -0.99609,-0.4065 -0.58594,0 -0.99976,0.41016 -0.41015,0.40649 -0.41015,0.98144 0,0.57129 0.41015,0.98145 0.41382,0.41015 0.99976,0.41015 0.58594,0 0.99609,-0.40649 0.41382,-0.41016 0.41382,-0.98511 z"
           style="font-style:normal;font-variant:normal;font-weight:normal;font-stretch:normal;font-size:7.5px;font-family:'Courier New';-inkscape-font-specification:'Courier New';fill:#000000;stroke:#cccccc;stroke-width:0.5;stroke-miterlimit:4;stroke-dasharray:none;stroke-opacity:1"
           id="path6093" />
        <path
           d="m 149.41283,268.72357 0,-0.45044 q -0.62989,0.57129 -1.36231,0.57129 -0.45044,0 -0.68481,-0.24536 -0.30396,-0.32227 -0.30396,-0.75073 l 0,-1.98487 -0.41382,0 q -0.10986,0 -0.15747,-0.0439 -0.0476,-0.0439 -0.0476,-0.11353 0,-0.0659 0.0476,-0.10986 0.0476,-0.0439 0.15747,-0.0439 l 0.72144,0 0,2.29614 q 0,0.30029 0.19043,0.49438 0.19043,0.19409 0.47607,0.19409 0.75074,0 1.37696,-0.68847 l 0,-1.98487 -0.56763,0 q -0.10986,0 -0.15747,-0.0439 -0.0476,-0.0439 -0.0476,-0.11353 0,-0.0659 0.0476,-0.10986 0.0476,-0.0439 0.15747,-0.0439 l 0.87524,0 0,2.86376 0.26001,0 q 0.10987,0 0.15747,0.0439 0.0476,0.0403 0.0476,0.10986 0,0.0659 -0.0476,0.10987 -0.0476,0.0439 -0.15747,0.0439 l -0.56762,0 z"
           style="font-style:normal;font-variant:normal;font-weight:normal;font-stretch:normal;font-size:7.5px;font-family:'Courier New';-inkscape-font-specification:'Courier New';fill:#000000;stroke:#cccccc;stroke-width:0.5;stroke-miterlimit:4;stroke-dasharray:none;stroke-opacity:1"
           id="path6095" />
        <path
           d="m 153.89159,266.11615 0,-0.56396 0.72143,0 q 0.10987,0 0.15747,0.0439 0.0476,0.0439 0.0476,0.11353 0,0.0659 -0.0476,0.10986 -0.0476,0.0439 -0.15747,0.0439 l -0.41382,0 0,3.07251 q 0,0.30762 -0.13183,0.54932 -0.0879,0.16113 -0.29297,0.33325 -0.20508,0.17212 -0.37354,0.24536 -0.16845,0.0733 -0.45044,0.0733 l -0.87158,0 q -0.10986,0 -0.15747,-0.0439 -0.0476,-0.0403 -0.0476,-0.10986 0,-0.0696 0.0476,-0.11353 0.0476,-0.0439 0.15747,-0.0439 l 0.88257,0.004 q 0.271,0 0.48706,-0.13916 0.21973,-0.13916 0.36255,-0.4065 0.0806,-0.1538 0.0806,-0.39184 l 0,-0.92285 q -0.49439,0.67749 -1.27442,0.67749 -0.63354,0 -1.09497,-0.46875 -0.45776,-0.47241 -0.45776,-1.13526 0,-0.66284 0.45776,-1.13159 0.46143,-0.46875 1.09497,-0.46875 0.78003,0 1.27442,0.67383 z m 0,0.92651 q 0,-0.54199 -0.37354,-0.91552 -0.36987,-0.37354 -0.88623,-0.37354 -0.51636,0 -0.88623,0.3772 -0.36987,0.37353 -0.36987,0.91186 0,0.542 0.36987,0.91919 0.36987,0.37354 0.88623,0.37354 0.51636,0 0.88623,-0.37354 0.37354,-0.37719 0.37354,-0.91919 z"
           style="font-style:normal;font-variant:normal;font-weight:normal;font-stretch:normal;font-size:7.5px;font-family:'Courier New';-inkscape-font-specification:'Courier New';fill:#000000;stroke:#cccccc;stroke-width:0.5;stroke-miterlimit:4;stroke-dasharray:none;stroke-opacity:1"
           id="path6097" />
        <path
           d="m 156.34154,264.12762 0,1.89332 q 0.29297,-0.31861 0.5603,-0.44678 0.271,-0.13184 0.60425,-0.13184 0.35888,0 0.60791,0.12818 0.25268,0.12451 0.42114,0.38818 0.16846,0.26001 0.16846,0.54932 l 0,1.90795 0.34424,0 q 0.11352,0 0.15747,0.0439 0.0476,0.0403 0.0476,0.10986 0,0.0659 -0.0476,0.10987 -0.0439,0.0439 -0.15747,0.0439 l -0.99976,0 q -0.11352,0 -0.16113,-0.0439 -0.0476,-0.0439 -0.0476,-0.10987 0,-0.0696 0.0476,-0.10986 0.0476,-0.0439 0.16113,-0.0439 l 0.34424,0 0,-1.88598 q 0,-0.33325 -0.2417,-0.55664 -0.23804,-0.22339 -0.6665,-0.22339 -0.33692,0 -0.57496,0.16479 -0.17211,0.11719 -0.56762,0.55298 l 0,1.94824 0.3479,0 q 0.10986,0 0.15747,0.0439 0.0476,0.0403 0.0476,0.10986 0,0.0659 -0.0476,0.10987 -0.0476,0.0439 -0.15747,0.0439 l -1.00342,0 q -0.10986,0 -0.15747,-0.0439 -0.0476,-0.0439 -0.0476,-0.10987 0,-0.0696 0.0476,-0.10986 0.0476,-0.0439 0.15747,-0.0439 l 0.3479,0 0,-3.97705 -0.41382,0 q -0.10986,0 -0.15747,-0.0439 -0.0476,-0.044 -0.0476,-0.11353 0,-0.0659 0.0476,-0.10986 0.0476,-0.0439 0.15747,-0.0439 l 0.72144,0 z"
           style="font-style:normal;font-variant:normal;font-weight:normal;font-stretch:normal;font-size:7.5px;font-family:'Courier New';-inkscape-font-specification:'Courier New';fill:#000000;stroke:#cccccc;stroke-width:0.5;stroke-miterlimit:4;stroke-dasharray:none;stroke-opacity:1"
           id="path6099" />
      </g>
      <g
         style="font-style:normal;font-weight:normal;font-size:57.41148376px;line-height:125%;font-family:sans-serif;letter-spacing:0px;word-spacing:0px;fill:#000000;fill-opacity:1;stroke:none;stroke-width:0.5;stroke-linecap:butt;stroke-linejoin:miter;stroke-miterlimit:4;stroke-dasharray:none;stroke-opacity:1"
         id="text4307-8">
        <path
           d="m 116.9006,268.74136 -1.42822,-2.8601 -0.0915,0 q -0.10986,0 -0.15747,-0.0439 -0.0476,-0.0439 -0.0476,-0.10986 0,-0.0476 0.022,-0.0842 0.0256,-0.0403 0.0623,-0.0549 0.0403,-0.0183 0.12085,-0.0183 l 0.84228,0 q 0.10987,0 0.15747,0.0439 0.0476,0.0439 0.0476,0.11353 0,0.0659 -0.0476,0.10986 -0.0476,0.0439 -0.15747,0.0439 l -0.41381,0 1.2561,2.52319 1.23779,-2.52319 -0.41382,0 q -0.10986,0 -0.15747,-0.0439 -0.0476,-0.0439 -0.0476,-0.11352 0,-0.0659 0.0476,-0.10987 0.0476,-0.0439 0.15747,-0.0439 l 0.83863,0 q 0.11352,0 0.16113,0.0439 0.0476,0.0439 0.0476,0.11353 0,0.0476 -0.0293,0.0879 -0.0293,0.0403 -0.0659,0.0549 -0.0366,0.011 -0.20508,0.011 l -1.94824,3.96606 0.47974,0 q 0.10986,0 0.15747,0.0403 0.0476,0.0439 0.0476,0.11353 0,0.0659 -0.0476,0.10986 -0.0476,0.0439 -0.15747,0.0439 l -1.77246,0 q -0.10987,0 -0.15747,-0.0439 -0.0476,-0.0403 -0.0476,-0.10986 0,-0.0696 0.0476,-0.11353 0.0476,-0.0403 0.15747,-0.0403 l 0.96313,0 0.54199,-1.10596 z"
           style="font-style:normal;font-variant:normal;font-weight:normal;font-stretch:normal;font-size:7.5px;font-family:'Courier New';-inkscape-font-specification:'Courier New';fill:#ffffff"
           id="path6102" />
        <path
           d="m 123.04196,267.22891 -3.13476,0 q 0.0806,0.59693 0.49804,0.96314 0.42115,0.36255 1.04004,0.36255 0.34424,0 0.72144,-0.11353 0.37719,-0.11352 0.61523,-0.30029 0.0696,-0.0549 0.12085,-0.0549 0.0586,0 0.10254,0.0476 0.0439,0.0439 0.0439,0.1062 0,0.0623 -0.0586,0.12085 -0.17578,0.18311 -0.62622,0.34424 -0.44678,0.15747 -0.91919,0.15747 -0.79101,0 -1.32202,-0.51635 -0.52734,-0.52002 -0.52734,-1.25611 0,-0.67016 0.49438,-1.1499 0.49805,-0.47974 1.23047,-0.47974 0.75439,0 1.24146,0.49439 0.48706,0.49072 0.47973,1.27441 z m -0.31128,-0.31128 q -0.0916,-0.50903 -0.4834,-0.82763 -0.38818,-0.31861 -0.92651,-0.31861 -0.53833,0 -0.92651,0.31494 -0.38819,0.31495 -0.4834,0.8313 l 2.81982,0 z"
           style="font-style:normal;font-variant:normal;font-weight:normal;font-stretch:normal;font-size:7.5px;font-family:'Courier New';-inkscape-font-specification:'Courier New';fill:#ffffff"
           id="path6104" />
        <path
           d="m 125.24289,265.56998 1.66992,0 q 0.10986,0 0.15747,0.0439 0.0476,0.0439 0.0476,0.11353 0,0.0659 -0.0476,0.10986 -0.0476,0.0439 -0.15747,0.0439 l -1.66992,0 0,2.04712 q 0,0.26733 0.2124,0.44677 0.21607,0.17945 0.62988,0.17945 0.31128,0 0.67383,-0.0916 0.36255,-0.0952 0.56397,-0.2124 0.0732,-0.0476 0.12085,-0.0476 0.0586,0 0.10254,0.0476 0.0439,0.044 0.0439,0.1062 0,0.0549 -0.0476,0.10254 -0.11718,0.12085 -0.57128,0.26367 -0.45044,0.13916 -0.86426,0.13916 -0.53833,0 -0.85694,-0.25268 -0.3186,-0.25269 -0.3186,-0.68115 l 0,-2.04712 -0.56763,0 q -0.10986,0 -0.15747,-0.0439 -0.0476,-0.0439 -0.0476,-0.11352 0,-0.0659 0.0476,-0.10987 0.0476,-0.0439 0.15747,-0.0439 l 0.56763,0 0,-0.90821 q 0,-0.10986 0.0439,-0.15747 0.0439,-0.0476 0.10986,-0.0476 0.0696,0 0.11352,0.0476 0.044,0.0476 0.044,0.15747 l 0,0.90821 z"
           style="font-style:normal;font-variant:normal;font-weight:normal;font-stretch:normal;font-size:7.5px;font-family:'Courier New';-inkscape-font-specification:'Courier New';fill:#ffffff"
           id="path6106" />
        <path
           d="m 136.53317,267.22891 -3.13476,0 q 0.0806,0.59693 0.49804,0.96314 0.42115,0.36255 1.04004,0.36255 0.34424,0 0.72144,-0.11353 0.3772,-0.11352 0.61523,-0.30029 0.0696,-0.0549 0.12085,-0.0549 0.0586,0 0.10254,0.0476 0.0439,0.0439 0.0439,0.1062 0,0.0623 -0.0586,0.12085 -0.17578,0.18311 -0.62622,0.34424 -0.44677,0.15747 -0.91919,0.15747 -0.79101,0 -1.32202,-0.51635 -0.52734,-0.52002 -0.52734,-1.25611 0,-0.67016 0.49438,-1.1499 0.49805,-0.47974 1.23047,-0.47974 0.7544,0 1.24146,0.49439 0.48706,0.49072 0.47973,1.27441 z m -0.31128,-0.31128 q -0.0916,-0.50903 -0.4834,-0.82763 -0.38818,-0.31861 -0.92651,-0.31861 -0.53833,0 -0.92651,0.31494 -0.38819,0.31495 -0.4834,0.8313 l 2.81982,0 z"
           style="font-style:normal;font-variant:normal;font-weight:normal;font-stretch:normal;font-size:7.5px;font-family:'Courier New';-inkscape-font-specification:'Courier New';stroke:none;stroke-width:0.5;stroke-miterlimit:4;stroke-dasharray:none;stroke-opacity:1"
           id="path6108" />
        <path
           d="m 138.37155,265.56998 0,0.46508 q 0.32227,-0.32592 0.58228,-0.45043 0.26001,-0.12452 0.58593,-0.12452 0.35157,0 0.64087,0.15015 0.20508,0.10986 0.36988,0.36621 0.16845,0.25269 0.16845,0.52002 l 0,1.93726 0.26001,0 q 0.10987,0 0.15747,0.0439 0.0476,0.0403 0.0476,0.10986 0,0.0659 -0.0476,0.10987 -0.0476,0.0439 -0.15747,0.0439 l -0.82397,0 q -0.11353,0 -0.16113,-0.0439 -0.0476,-0.0439 -0.0476,-0.10987 0,-0.0696 0.0476,-0.10986 0.0476,-0.0439 0.16113,-0.0439 l 0.25635,0 0,-1.88599 q 0,-0.32593 -0.23804,-0.54932 -0.23804,-0.22705 -0.63721,-0.22705 -0.30395,0 -0.52734,0.12451 -0.22339,0.12085 -0.63721,0.60791 l 0,1.92994 0.3479,0 q 0.10987,0 0.15747,0.0439 0.0476,0.0403 0.0476,0.10986 0,0.0659 -0.0476,0.10987 -0.0476,0.0439 -0.15747,0.0439 l -1.00342,0 q -0.10986,0 -0.15747,-0.0439 -0.0476,-0.0439 -0.0476,-0.10987 0,-0.0696 0.0476,-0.10986 0.0476,-0.0439 0.15747,-0.0439 l 0.3479,0 0,-2.55249 -0.26001,0 q -0.10986,0 -0.15747,-0.0439 -0.0476,-0.0439 -0.0476,-0.11352 0,-0.0659 0.0476,-0.10987 0.0476,-0.0439 0.15747,-0.0439 l 0.56763,0 z"
           style="font-style:normal;font-variant:normal;font-weight:normal;font-stretch:normal;font-size:7.5px;font-family:'Courier New';-inkscape-font-specification:'Courier New';stroke:none;stroke-width:0.5;stroke-miterlimit:4;stroke-dasharray:none;stroke-opacity:1"
           id="path6110" />
        <path
           d="m 145.58224,267.16299 q 0,0.70313 -0.50537,1.20118 -0.50171,0.49804 -1.21215,0.49804 -0.71778,0 -1.21949,-0.49804 -0.50171,-0.50171 -0.50171,-1.20118 0,-0.70312 0.50171,-1.20117 0.50171,-0.50171 1.21949,-0.50171 0.71044,0 1.21215,0.49805 0.50537,0.49805 0.50537,1.20483 z m -0.31127,0 q 0,-0.57861 -0.41382,-0.9851 -0.41016,-0.4065 -0.9961,-0.4065 -0.58593,0 -0.99975,0.41016 -0.41016,0.40649 -0.41016,0.98144 0,0.57129 0.41016,0.98145 0.41382,0.41016 0.99975,0.41016 0.58594,0 0.9961,-0.4065 0.41382,-0.41015 0.41382,-0.98511 z"
           style="font-style:normal;font-variant:normal;font-weight:normal;font-stretch:normal;font-size:7.5px;font-family:'Courier New';-inkscape-font-specification:'Courier New';stroke:none;stroke-width:0.5;stroke-miterlimit:4;stroke-dasharray:none;stroke-opacity:1"
           id="path6112" />
        <path
           d="m 149.41281,268.74136 0,-0.45044 q -0.62988,0.57129 -1.3623,0.57129 -0.45044,0 -0.68482,-0.24536 -0.30395,-0.32226 -0.30395,-0.75073 l 0,-1.98486 -0.41382,0 q -0.10986,0 -0.15747,-0.0439 -0.0476,-0.0439 -0.0476,-0.11352 0,-0.0659 0.0476,-0.10987 0.0476,-0.0439 0.15747,-0.0439 l 0.72143,0 0,2.29614 q 0,0.30029 0.19043,0.49438 0.19043,0.1941 0.47608,0.1941 0.75073,0 1.37695,-0.68848 l 0,-1.98486 -0.56763,0 q -0.10986,0 -0.15747,-0.0439 -0.0476,-0.0439 -0.0476,-0.11352 0,-0.0659 0.0476,-0.10987 0.0476,-0.0439 0.15747,-0.0439 l 0.87525,0 0,2.86377 0.26001,0 q 0.10986,0 0.15747,0.0439 0.0476,0.0403 0.0476,0.10986 0,0.0659 -0.0476,0.10987 -0.0476,0.0439 -0.15747,0.0439 l -0.56763,0 z"
           style="font-style:normal;font-variant:normal;font-weight:normal;font-stretch:normal;font-size:7.5px;font-family:'Courier New';-inkscape-font-specification:'Courier New';stroke:none;stroke-width:0.5;stroke-miterlimit:4;stroke-dasharray:none;stroke-opacity:1"
           id="path6114" />
        <path
           d="m 153.89157,266.13394 0,-0.56396 0.72144,0 q 0.10986,0 0.15747,0.0439 0.0476,0.0439 0.0476,0.11353 0,0.0659 -0.0476,0.10986 -0.0476,0.0439 -0.15747,0.0439 l -0.41382,0 0,3.07251 q 0,0.30761 -0.13184,0.54931 -0.0879,0.16114 -0.29297,0.33325 -0.20507,0.17212 -0.37353,0.24537 -0.16846,0.0732 -0.45044,0.0732 l -0.87158,0 q -0.10987,0 -0.15747,-0.0439 -0.0476,-0.0403 -0.0476,-0.10986 0,-0.0696 0.0476,-0.11353 0.0476,-0.0439 0.15747,-0.0439 l 0.88257,0.004 q 0.27099,0 0.48706,-0.13916 0.21972,-0.13916 0.36254,-0.40649 0.0806,-0.15381 0.0806,-0.39185 l 0,-0.92285 q -0.49438,0.67749 -1.27441,0.67749 -0.63355,0 -1.09497,-0.46875 -0.45777,-0.47241 -0.45777,-1.13525 0,-0.66285 0.45777,-1.1316 0.46142,-0.46875 1.09497,-0.46875 0.78003,0 1.27441,0.67383 z m 0,0.92652 q 0,-0.542 -0.37353,-0.91553 -0.36988,-0.37354 -0.88623,-0.37354 -0.51636,0 -0.88624,0.3772 -0.36987,0.37354 -0.36987,0.91187 0,0.54199 0.36987,0.91918 0.36988,0.37354 0.88624,0.37354 0.51635,0 0.88623,-0.37354 0.37353,-0.37719 0.37353,-0.91918 z"
           style="font-style:normal;font-variant:normal;font-weight:normal;font-stretch:normal;font-size:7.5px;font-family:'Courier New';-inkscape-font-specification:'Courier New';stroke:none;stroke-width:0.5;stroke-miterlimit:4;stroke-dasharray:none;stroke-opacity:1"
           id="path6116" />
        <path
           d="m 156.34152,264.14542 0,1.89331 q 0.29297,-0.31861 0.5603,-0.44678 0.271,-0.13184 0.60425,-0.13184 0.35889,0 0.60791,0.12818 0.25269,0.12451 0.42115,0.38818 0.16845,0.26001 0.16845,0.54932 l 0,1.90796 0.34424,0 q 0.11353,0 0.15747,0.0439 0.0476,0.0403 0.0476,0.10986 0,0.0659 -0.0476,0.10987 -0.0439,0.0439 -0.15747,0.0439 l -0.99975,0 q -0.11353,0 -0.16114,-0.0439 -0.0476,-0.0439 -0.0476,-0.10987 0,-0.0696 0.0476,-0.10986 0.0476,-0.0439 0.16114,-0.0439 l 0.34423,0 0,-1.88599 q 0,-0.33325 -0.2417,-0.55664 -0.23803,-0.22339 -0.6665,-0.22339 -0.33691,0 -0.57495,0.1648 -0.17212,0.11718 -0.56763,0.55297 l 0,1.94825 0.3479,0 q 0.10987,0 0.15747,0.0439 0.0476,0.0403 0.0476,0.10986 0,0.0659 -0.0476,0.10987 -0.0476,0.0439 -0.15747,0.0439 l -1.00342,0 q -0.10986,0 -0.15747,-0.0439 -0.0476,-0.0439 -0.0476,-0.10987 0,-0.0696 0.0476,-0.10986 0.0476,-0.0439 0.15747,-0.0439 l 0.34791,0 0,-3.97705 -0.41382,0 q -0.10987,0 -0.15747,-0.0439 -0.0476,-0.0439 -0.0476,-0.11353 0,-0.0659 0.0476,-0.10986 0.0476,-0.0439 0.15747,-0.0439 l 0.72143,0 z"
           style="font-style:normal;font-variant:normal;font-weight:normal;font-stretch:normal;font-size:7.5px;font-family:'Courier New';-inkscape-font-specification:'Courier New';stroke:none;stroke-width:0.5;stroke-miterlimit:4;stroke-dasharray:none;stroke-opacity:1"
           id="path6118" />
      </g>
    </g>
  </g>
</svg>
